<svg xmlns="http://www.w3.org/2000/svg" viewBox="0 0 192 192" width="192" height="192">
  <defs>
    <linearGradient id="favGold" x1="0%" y1="0%" x2="100%" y2="100%">
      <stop offset="0%" stop-color="#D4B87A"/>
      <stop offset="50%" stop-color="#C9A961"/>
      <stop offset="100%" stop-color="#B8944D"/>
    </linearGradient>
  </defs>
  <!-- Outer circle -->
  <circle cx="96" cy="96" r="88" fill="none" stroke="url(#favGold)" stroke-width="3"/>
  <!-- Inner circle -->
  <circle cx="96" cy="96" r="65" fill="none" stroke="#C9A961" stroke-width="1.5" opacity="0.4"/>
  <!-- 8-pointed star -->
  <polygon points="96,10 105,72 182,96 119,105 96,182 87,120 10,96 73,87" fill="none" stroke="url(#favGold)" stroke-width="4"/>
  <!-- Cardinal point ticks (N, E, S, W) -->
  <line x1="96" y1="8" x2="96" y2="0" stroke="#C9A961" stroke-width="4" stroke-linecap="round"/>
  <line x1="184" y1="96" x2="192" y2="96" stroke="#C9A961" stroke-width="4" stroke-linecap="round"/>
  <line x1="96" y1="184" x2="96" y2="192" stroke="#C9A961" stroke-width="4" stroke-linecap="round"/>
  <line x1="8" y1="96" x2="0" y2="96" stroke="#C9A961" stroke-width="4" stroke-linecap="round"/>
  <!-- Diagonal ticks (NE, SE, SW, NW) -->
  <line x1="159" y1="33" x2="164" y2="28" stroke="#C9A961" stroke-width="2.5" stroke-linecap="round"/>
  <line x1="159" y1="159" x2="164" y2="164" stroke="#C9A961" stroke-width="2.5" stroke-linecap="round"/>
  <line x1="33" y1="159" x2="28" y2="164" stroke="#C9A961" stroke-width="2.5" stroke-linecap="round"/>
  <line x1="33" y1="33" x2="28" y2="28" stroke="#C9A961" stroke-width="2.5" stroke-linecap="round"/>
  <!-- Center dot -->
  <circle cx="96" cy="96" r="7" fill="#C9A961"/>
</svg>
