<svg xmlns="http://www.w3.org/2000/svg" viewBox="0 0 80 80">
  <g fill="none" stroke="#C9A961" stroke-width="2.5" stroke-linecap="round" stroke-linejoin="round">
    <!-- Top claw (6 shape, opening left) -->
    <path d="M58 28 C58 28 62 20 56 14 C50 8 40 10 34 16 C28 22 28 32 34 36 C38 38 42 36 42 32 C42 28 38 26 36 28"/>
    <!-- Bottom claw (9 shape, opening right) -->
    <path d="M22 52 C22 52 18 60 24 66 C30 72 40 70 46 64 C52 58 52 48 46 44 C42 42 38 44 38 48 C38 52 42 54 44 52"/>
  </g>
</svg>